<svg xmlns="http://www.w3.org/2000/svg" viewBox="0 0 2000 500" fill="none" stroke="currentColor" stroke-width="2.5" stroke-linecap="round" stroke-linejoin="round">
  <path d="M 0 480 L 25 480 L 25 430 L 55 430 L 55 420 L 85 420 L 85 435 L 115 435 L 115 430 L 145 430 L 145 445 L 175 445 L 175 480 L 200 480 L 200 380 L 225 380 L 225 390 L 250 390 L 250 385 L 280 385 L 280 480 L 300 480 L 300 405 L 325 405 L 325 395 L 350 395 L 350 415 L 380 415 L 380 480 L 410 480 L 430 480 L 430 440 L 445 440 L 445 425 L 455 425 L 455 405 L 460 405 L 460 275 L 455 275 L 455 265 L 450 265 L 450 250 L 446 250 L 446 238 L 442 238 L 442 228 L 444 222 L 448 216 L 452 210 L 454 202 L 455 192 L 456 180 L 457 168 L 458 156 L 460 156 L 462 168 L 463 180 L 464 192 L 465 202 L 467 210 L 471 216 L 475 222 L 477 228 L 477 238 L 473 238 L 473 250 L 469 250 L 469 265 L 464 265 L 464 275 L 459 275 L 459 405 L 464 405 L 464 425 L 474 425 L 474 440 L 489 440 L 489 480 L 515 480 L 540 480 L 540 300 L 555 300 L 555 285 L 570 275 L 588 262 L 605 258 L 620 265 L 635 275 L 648 290 L 655 310 L 655 480 L 680 480 L 680 340 L 705 340 L 705 330 L 730 330 L 730 480 L 750 480 L 750 400 L 775 400 L 775 395 L 805 395 L 805 410 L 830 410 L 830 480 L 860 480 L 860 380 L 870 380 L 870 365 L 875 365 L 875 360 L 878 360 L 878 370 L 883 370 L 883 360 L 886 360 L 886 370 L 889 370 L 889 360 L 892 360 L 892 380 L 895 380 L 895 360 L 902 345 L 912 328 L 925 315 L 940 308 L 955 305 L 970 308 L 985 315 L 998 328 L 1008 345 L 1015 360 L 1015 380 L 1018 380 L 1018 360 L 1021 360 L 1021 370 L 1024 370 L 1024 360 L 1027 360 L 1027 370 L 1030 370 L 1030 360 L 1035 360 L 1035 365 L 1040 365 L 1040 380 L 1050 380 L 1050 480 L 1075 480 L 1075 240 L 1100 240 L 1100 225 L 1110 225 L 1110 210 L 1115 210 L 1115 195 L 1118 195 L 1118 180 L 1120 180 L 1120 130 L 1122 130 L 1122 180 L 1124 180 L 1124 195 L 1127 195 L 1127 210 L 1132 210 L 1132 225 L 1142 225 L 1142 240 L 1167 240 L 1167 480 L 1190 480 L 1190 395 L 1215 395 L 1215 385 L 1240 385 L 1240 480 L 1260 480 L 1280 480 L 1280 430 L 1295 430 L 1295 390 L 1310 390 L 1310 360 L 1325 360 L 1325 335 L 1340 335 L 1340 320 L 1360 320 L 1360 335 L 1375 335 L 1375 360 L 1390 360 L 1390 390 L 1405 390 L 1405 430 L 1420 430 L 1420 480 L 1445 480 L 1445 370 L 1470 370 L 1470 380 L 1495 380 L 1495 480 L 1520 480 L 1540 480 L 1540 240 L 1565 240 L 1565 295 L 1625 295 L 1625 240 L 1650 240 L 1650 480 L 1675 480 L 1675 380 L 1700 380 L 1700 395 L 1730 395 L 1730 480 L 1755 480 L 1755 350 L 1785 350 L 1785 340 L 1815 340 L 1815 480 L 1840 480 L 1840 420 L 1870 420 L 1870 410 L 1905 410 L 1905 480 L 1930 480 L 1930 445 L 1965 445 L 1965 435 L 1995 435 L 1995 480 L 2000 480" />
</svg>
