<svg xmlns="http://www.w3.org/2000/svg" viewBox="0 0 2000 500" fill="none" stroke="currentColor" stroke-width="2.5" stroke-linecap="round" stroke-linejoin="round">
  <path d="M 0 480 L 25 480 L 25 445 L 48 445 L 48 438 L 72 438 L 72 445 L 92 445 L 92 458 L 115 458 L 115 480 L 135 480 L 135 410 L 155 410 L 155 405 L 178 405 L 178 395 L 198 395 L 198 405 L 220 405 L 220 480 L 240 480 L 240 425 L 265 425 L 265 420 L 295 420 L 295 430 L 322 430 L 322 480 L 342 480 L 342 385 L 362 385 L 362 395 L 385 395 L 385 380 L 408 380 L 408 480 L 428 480 L 428 420 L 460 420 L 460 415 L 495 415 L 495 425 L 525 425 L 525 480 L 548 480 L 548 400 L 572 400 L 572 410 L 595 410 L 595 395 L 620 395 L 620 480 L 640 480 L 640 440 L 665 440 L 665 430 L 685 430 L 685 480 L 710 480 L 720 466 L 720 418 L 735 418 L 735 408 L 740 408 L 740 395 L 745 395 L 745 378 L 748 378 L 748 360 L 750 360 L 750 338 L 753 338 L 753 360 L 755 360 L 755 378 L 758 378 L 758 395 L 763 395 L 763 408 L 768 408 L 768 418 L 783 418 L 783 466 L 800 460 L 825 454 L 855 448 L 890 443 L 925 440 L 960 440 L 995 443 L 1030 448 L 1060 454 L 1085 460 L 1100 466 L 1100 418 L 1115 418 L 1115 408 L 1120 408 L 1120 395 L 1125 395 L 1125 378 L 1128 378 L 1128 360 L 1130 360 L 1130 338 L 1133 338 L 1133 360 L 1135 360 L 1135 378 L 1138 378 L 1138 395 L 1143 395 L 1143 408 L 1148 408 L 1148 418 L 1163 418 L 1163 466 L 1175 480 L 1200 480 L 1200 445 L 1205 445 L 1205 440 L 1210 440 L 1210 445 L 1215 445 L 1215 440 L 1220 440 L 1220 445 L 1225 445 L 1225 440 L 1230 440 L 1230 445 L 1235 445 L 1235 440 L 1240 440 L 1240 445 L 1250 445 L 1250 418 L 1275 418 L 1275 388 L 1295 388 L 1295 358 L 1312 358 L 1312 310 L 1317 310 L 1317 285 L 1320 285 L 1320 260 L 1322 260 L 1322 235 L 1324 235 L 1324 210 L 1326 210 L 1326 190 L 1328 190 L 1328 170 L 1330 170 L 1330 150 L 1333 150 L 1333 170 L 1335 170 L 1335 190 L 1337 190 L 1337 210 L 1339 210 L 1339 235 L 1341 235 L 1341 260 L 1343 260 L 1343 285 L 1348 285 L 1348 272 L 1350 272 L 1350 258 L 1352 258 L 1352 248 L 1354 248 L 1354 258 L 1356 258 L 1356 245 L 1358 245 L 1358 258 L 1360 258 L 1360 240 L 1362 240 L 1362 258 L 1364 258 L 1364 230 L 1366 230 L 1366 258 L 1368 258 L 1368 240 L 1370 240 L 1370 258 L 1372 258 L 1372 245 L 1374 245 L 1374 258 L 1376 258 L 1376 248 L 1378 248 L 1378 258 L 1380 258 L 1380 272 L 1382 272 L 1382 285 L 1387 285 L 1387 310 L 1392 310 L 1392 358 L 1408 358 L 1408 388 L 1428 388 L 1428 418 L 1450 418 L 1450 445 L 1460 445 L 1460 440 L 1465 440 L 1465 445 L 1470 445 L 1470 440 L 1475 440 L 1475 445 L 1480 445 L 1480 440 L 1485 440 L 1485 445 L 1490 445 L 1490 480 L 1515 480 L 1515 400 L 1540 400 L 1540 390 L 1565 390 L 1565 405 L 1590 405 L 1590 480 L 1605 480 L 1605 360 L 1625 360 L 1625 355 L 1645 355 L 1645 480 L 1665 480 L 1665 290 L 1685 290 L 1685 270 L 1700 270 L 1700 250 L 1712 250 L 1712 230 L 1720 230 L 1720 215 L 1725 215 L 1725 200 L 1728 200 L 1728 185 L 1731 185 L 1731 170 L 1733 170 L 1733 155 L 1735 155 L 1735 135 L 1737 135 L 1737 155 L 1739 155 L 1739 170 L 1741 170 L 1741 185 L 1744 185 L 1744 200 L 1747 200 L 1747 215 L 1752 215 L 1752 230 L 1760 230 L 1760 250 L 1772 250 L 1772 270 L 1787 270 L 1787 290 L 1807 290 L 1807 480 L 1820 480 L 1840 480 L 1840 300 L 1867 300 L 1867 285 L 1885 285 L 1885 270 L 1897 270 L 1897 255 L 1905 255 L 1905 235 L 1909 235 L 1909 215 L 1912 215 L 1912 190 L 1914 190 L 1914 165 L 1916 165 L 1916 190 L 1918 190 L 1918 215 L 1921 215 L 1921 235 L 1925 235 L 1925 255 L 1933 255 L 1933 270 L 1945 270 L 1945 285 L 1963 285 L 1963 300 L 1985 300 L 1985 480 L 2000 480" />
</svg>
