<svg xmlns="http://www.w3.org/2000/svg" viewBox="0 0 2000 500" fill="none" stroke="currentColor" stroke-width="2.5" stroke-linecap="round" stroke-linejoin="round">
  <path d="M 0 480 L 30 480 L 30 445 L 60 445 L 60 440 L 92 440 L 92 450 L 120 450 L 120 440 L 150 440 L 150 430 L 180 430 L 180 445 L 210 445 L 210 480 L 230 480 L 230 420 L 242 420 L 242 410 L 248 410 L 248 390 L 250 390 L 250 370 L 252 370 L 252 390 L 258 390 L 258 410 L 270 410 L 270 420 L 280 420 L 280 430 L 310 430 L 310 420 L 340 420 L 340 480 L 360 480 L 360 370 L 380 370 L 380 360 L 382 360 L 382 350 L 384 350 L 384 340 L 400 340 L 400 350 L 402 350 L 402 360 L 404 360 L 404 370 L 420 370 L 420 385 L 440 385 L 440 480 L 460 480 L 460 420 L 485 420 L 485 415 L 510 415 L 510 430 L 530 430 L 530 480 L 570 480 L 570 270 L 580 270 L 580 260 L 585 260 L 585 250 L 590 250 L 590 240 L 595 240 L 595 230 L 598 230 L 598 210 L 600 210 L 600 180 L 602 180 L 602 210 L 605 210 L 605 230 L 608 230 L 608 240 L 613 240 L 613 250 L 618 250 L 618 260 L 623 260 L 623 270 L 633 270 L 633 480 L 670 480 L 670 270 L 680 270 L 680 260 L 685 260 L 685 250 L 690 250 L 690 240 L 695 240 L 695 230 L 698 230 L 698 210 L 700 210 L 700 180 L 702 180 L 702 210 L 705 210 L 705 230 L 708 230 L 708 240 L 713 240 L 713 250 L 718 250 L 718 260 L 723 260 L 723 270 L 733 270 L 733 480 L 750 480 L 750 415 L 770 415 L 770 410 L 775 410 L 775 415 L 780 415 L 780 410 L 785 410 L 785 415 L 790 415 L 790 410 L 795 410 L 795 415 L 810 415 L 810 480 L 830 480 L 830 430 L 855 430 L 855 420 L 880 420 L 880 435 L 905 435 L 905 480 L 940 480 L 945 472 L 970 472 L 980 465 L 1005 465 L 1015 472 L 1045 472 L 1050 480 L 1075 480 L 1075 430 L 1100 430 L 1100 420 L 1130 420 L 1130 435 L 1160 435 L 1160 480 L 1180 480 L 1180 340 L 1200 340 L 1200 330 L 1225 330 L 1225 310 L 1228 310 L 1228 290 L 1230 290 L 1230 270 L 1232 270 L 1232 250 L 1234 250 L 1234 225 L 1236 225 L 1236 250 L 1238 250 L 1238 270 L 1240 270 L 1240 290 L 1242 290 L 1242 310 L 1245 310 L 1245 330 L 1270 330 L 1270 340 L 1290 340 L 1290 480 L 1310 480 L 1310 425 L 1335 425 L 1335 415 L 1365 415 L 1365 430 L 1395 430 L 1395 480 L 1415 480 L 1415 320 L 1430 320 L 1430 310 L 1455 310 L 1455 290 L 1458 290 L 1458 270 L 1460 270 L 1460 250 L 1462 250 L 1462 230 L 1464 230 L 1464 210 L 1466 210 L 1466 190 L 1468 190 L 1468 160 L 1470 160 L 1470 125 L 1472 125 L 1472 160 L 1474 160 L 1474 190 L 1476 190 L 1476 210 L 1478 210 L 1478 230 L 1480 230 L 1480 250 L 1482 250 L 1482 270 L 1484 270 L 1484 290 L 1486 290 L 1486 310 L 1512 310 L 1512 320 L 1530 320 L 1530 480 L 1555 480 L 1555 420 L 1585 420 L 1585 415 L 1620 415 L 1620 430 L 1655 430 L 1655 480 L 1680 480 L 1680 360 L 1700 360 L 1700 350 L 1718 350 L 1718 340 L 1720 340 L 1720 320 L 1722 320 L 1722 290 L 1724 290 L 1724 320 L 1726 320 L 1726 340 L 1728 340 L 1728 350 L 1746 350 L 1746 360 L 1765 360 L 1765 480 L 1790 480 L 1790 410 L 1830 410 L 1830 400 L 1870 400 L 1870 420 L 1910 420 L 1910 480 L 1935 480 L 1935 445 L 1970 445 L 1970 435 L 2000 435 L 2000 480" />
</svg>
